<?xml version="1.0" encoding="UTF-8"?>
<!--Generator: Apple Native CoreSVG 341-->
<!DOCTYPE svg
PUBLIC "-//W3C//DTD SVG 1.1//EN"
       "http://www.w3.org/Graphics/SVG/1.1/DTD/svg11.dtd">
<svg version="1.1" xmlns="http://www.w3.org/2000/svg" xmlns:xlink="http://www.w3.org/1999/xlink" viewBox="0 0 13.0283 17.4315">
 <g>
  <rect height="17.4315" opacity="0" width="13.0283" x="0" y="0"/>
  <path d="M0 8.71187C0 9.00796 0.111249 9.25733 0.345621 9.48889L8.26297 17.1353C8.455 17.3223 8.69312 17.4251 8.97093 17.4251C9.53499 17.4251 9.9842 16.9823 9.9842 16.4161C9.9842 16.1341 9.87014 15.8875 9.67749 15.6934L2.42373 8.70905L9.67749 1.72248C9.87295 1.52983 9.9842 1.27405 9.9842 1.00124C9.9842 0.434996 9.53499 0 8.97093 0C8.69172 0 8.455 0.0964055 8.26297 0.288435L0.345621 7.93484C0.112655 8.15859 0.00140619 8.40656 0 8.71187Z" fill="white"/>
 </g>
</svg>
