<?xml version="1.0" encoding="UTF-8"?>
<!--Generator: Apple Native CoreSVG 341-->
<!DOCTYPE svg
PUBLIC "-//W3C//DTD SVG 1.1//EN"
       "http://www.w3.org/Graphics/SVG/1.1/DTD/svg11.dtd">
<svg version="1.1" xmlns="http://www.w3.org/2000/svg" xmlns:xlink="http://www.w3.org/1999/xlink" viewBox="0 0 21.0151 20.6231">
 <g>
  <rect height="20.6231" opacity="0" width="21.0151" x="0" y="0"/>
  <path d="M10.3012 20.6089C15.9901 20.6089 20.6089 15.9951 20.6089 10.3077C20.6089 4.61875 15.9901 0 10.3012 0C4.61234 0 0 4.61875 0 10.3077C0 15.9951 4.61234 20.6089 10.3012 20.6089ZM10.3012 18.8281C5.59062 18.8281 1.78077 15.0183 1.78077 10.3077C1.78077 5.59702 5.59062 1.78577 10.3012 1.78577C15.0119 1.78577 18.8217 5.59702 18.8217 10.3077C18.8217 15.0183 15.0119 18.8281 10.3012 18.8281Z" fill="#ff6900"/>
  <path d="M5.06514 11.4745L10.2934 11.4745C10.6934 11.4745 11.0026 11.1653 11.0026 10.7667L11.0026 3.9878C11.0026 3.59561 10.6934 3.2864 10.2934 3.2864C9.90765 3.2864 9.59203 3.59561 9.59203 3.9878L9.59203 10.0639L5.06514 10.0639C4.66515 10.0639 4.36234 10.3745 4.36234 10.7667C4.36234 11.1653 4.66515 11.4745 5.06514 11.4745Z" fill="#ff6900"/>
 </g>
</svg>
