<?xml version="1.0" encoding="UTF-8"?>
<!--Generator: Apple Native CoreSVG 341-->
<!DOCTYPE svg
PUBLIC "-//W3C//DTD SVG 1.1//EN"
       "http://www.w3.org/Graphics/SVG/1.1/DTD/svg11.dtd">
<svg version="1.1" xmlns="http://www.w3.org/2000/svg" xmlns:xlink="http://www.w3.org/1999/xlink" viewBox="0 0 21.6006 19.3394">
 <g>
  <rect height="19.3394" opacity="0" width="21.6006" x="0" y="0"/>
  <path d="M2.7289 19.2597L18.4605 19.2597C20.1481 19.2597 21.1944 18.0487 21.1944 16.5486C21.1944 16.0658 21.0616 15.5687 20.7981 15.1108L12.9334 1.36015C12.4145 0.449374 11.5094 0 10.5986 0C9.68 0 8.77703 0.453593 8.26234 1.36015L0.397656 15.1122C0.127812 15.5766 0 16.0658 0 16.5486C0 18.0487 1.04625 19.2597 2.7289 19.2597ZM2.87249 17.6058C2.17077 17.6058 1.7478 17.0691 1.7478 16.4691C1.7478 16.2614 1.80327 16.0183 1.92061 15.795L9.64312 2.26249C9.85499 1.8878 10.2353 1.7392 10.5986 1.7392C10.9619 1.7392 11.333 1.89061 11.5384 2.26389L19.2688 15.8056C19.3861 16.0289 19.4416 16.2628 19.4416 16.4691C19.4416 17.0691 19.0122 17.6058 18.3105 17.6058Z" fill="#fb2c36"/>
  <path d="M10.5936 12.367C11.0709 12.367 11.3575 12.0925 11.3723 11.5697L11.5058 6.54702C11.522 6.02359 11.1305 5.64406 10.5844 5.64406C10.0319 5.64406 9.65453 6.01577 9.66938 6.53921L9.79641 11.5739C9.81125 12.0861 10.0928 12.367 10.5936 12.367ZM10.5936 15.6198C11.1853 15.6198 11.6786 15.1825 11.6786 14.5992C11.6786 14.0109 11.1917 13.5722 10.5936 13.5722C9.99406 13.5722 9.50438 14.0159 9.50438 14.5992C9.50438 15.1761 10.0019 15.6198 10.5936 15.6198Z" fill="#fb2c36"/>
 </g>
</svg>
