<?xml version="1.0" encoding="UTF-8"?>
<!--Generator: Apple Native CoreSVG 341-->
<!DOCTYPE svg
PUBLIC "-//W3C//DTD SVG 1.1//EN"
       "http://www.w3.org/Graphics/SVG/1.1/DTD/svg11.dtd">
<svg version="1.1" xmlns="http://www.w3.org/2000/svg" xmlns:xlink="http://www.w3.org/1999/xlink" viewBox="0 0 21.0151 20.6231">
 <g>
  <rect height="20.6231" opacity="0" width="21.0151" x="0" y="0"/>
  <path d="M10.3012 20.6089C15.9901 20.6089 20.6089 15.9951 20.6089 10.3077C20.6089 4.61875 15.9901 0 10.3012 0C4.61234 0 0 4.61875 0 10.3077C0 15.9951 4.61234 20.6089 10.3012 20.6089ZM10.3012 18.8281C5.59062 18.8281 1.78077 15.0183 1.78077 10.3077C1.78077 5.59702 5.59062 1.78577 10.3012 1.78577C15.0119 1.78577 18.8217 5.59702 18.8217 10.3077C18.8217 15.0183 15.0119 18.8281 10.3012 18.8281Z" fill="#ff6900"/>
  <path d="M10.2898 12.0133C10.7736 12.0133 11.0601 11.7323 11.0736 11.2095L11.2084 6.18686C11.2233 5.66343 10.8267 5.2839 10.2806 5.2839C9.72672 5.2839 9.35078 5.65562 9.36562 6.17905L9.49266 11.2138C9.5075 11.7245 9.79547 12.0133 10.2898 12.0133ZM10.2898 15.2661C10.888 15.2661 11.3748 14.8223 11.3748 14.2391C11.3748 13.6494 10.8944 13.212 10.2898 13.212C9.69031 13.212 9.20703 13.6558 9.20703 14.2391C9.20703 14.8159 9.69672 15.2661 10.2898 15.2661Z" fill="#ff6900"/>
 </g>
</svg>
