<?xml version="1.0" encoding="UTF-8"?>
<!--Generator: Apple Native CoreSVG 341-->
<!DOCTYPE svg
PUBLIC "-//W3C//DTD SVG 1.1//EN"
       "http://www.w3.org/Graphics/SVG/1.1/DTD/svg11.dtd">
<svg version="1.1" xmlns="http://www.w3.org/2000/svg" xmlns:xlink="http://www.w3.org/1999/xlink" viewBox="0 0 17.3101 23.7281">
 <g>
  <rect height="23.7281" opacity="0" width="17.3101" x="0" y="0"/>
  <path d="M7.98578 21.8844C13.3328 21.8844 16.9039 18.2734 16.9039 12.8211C16.9039 3.79859 9.19687 0 3.79937 0C2.8464 0 2.24344 0.353904 2.24344 1.02421C2.24344 1.28312 2.36047 1.55124 2.57765 1.8053C3.81593 3.29702 4.98328 4.96671 4.9975 6.87749C4.9975 7.31421 4.93344 7.70828 4.63109 8.19047L5.07734 8.0925C4.54812 6.56907 3.35703 5.64844 2.38234 5.64844C1.95609 5.64844 1.67312 5.9464 1.67312 6.40734C1.67312 6.70953 1.75125 7.28171 1.75125 7.7664C1.75125 10.1541 0 11.3197 0 14.9852C0 19.1328 3.17125 21.8844 7.98578 21.8844ZM8.07874 20.3984C4.14124 20.3984 1.50155 18.2203 1.50155 14.9852C1.50155 11.7497 3.2214 10.8053 3.21718 7.8964C3.21718 7.53249 3.14468 7.18421 3.0764 6.86437L2.79515 7.17312C3.55328 7.67358 4.19093 8.61467 4.50656 9.90483C4.55906 10.1508 4.68656 10.2733 4.88703 10.2733C5.70343 10.2733 6.3303 8.37874 6.3303 6.96031C6.3303 4.76062 5.37702 2.6864 3.75936 1.05593L3.43499 1.43702C10.5189 1.5728 15.3462 6.29593 15.3462 12.7778C15.3462 17.3297 12.4267 20.3984 8.07874 20.3984ZM8.20577 18.8361C10.5073 18.8361 11.6733 17.1702 11.6733 15.2086C11.6733 13.2516 10.5384 11.1533 8.41109 10.1608C8.30124 10.1133 8.20781 10.1806 8.23187 10.3003C8.42218 11.8656 8.21578 13.2923 7.70359 14.0377C7.46484 13.4519 7.16859 12.9561 6.72952 12.5605C6.62749 12.4833 6.54328 12.525 6.52765 12.6384C6.36781 13.8012 5.16874 14.3897 5.16874 16.098C5.16874 17.7416 6.37546 18.8361 8.20577 18.8361Z" fill="#ff6900"/>
 </g>
</svg>
