<?xml version="1.0" encoding="UTF-8"?>
<!--Generator: Apple Native CoreSVG 341-->
<!DOCTYPE svg
PUBLIC "-//W3C//DTD SVG 1.1//EN"
       "http://www.w3.org/Graphics/SVG/1.1/DTD/svg11.dtd">
<svg version="1.1" xmlns="http://www.w3.org/2000/svg" xmlns:xlink="http://www.w3.org/1999/xlink" viewBox="0 0 20.5151 19.1278">
 <g>
  <rect height="19.1278" opacity="0" width="20.5151" x="0" y="0"/>
  <path d="M0 6.71609C0 10.9808 3.64203 15.175 9.21891 18.7822C9.48875 18.9578 9.82546 19.1278 10.0537 19.1278C10.2898 19.1278 10.6266 18.9578 10.8964 18.7822C16.4669 15.175 20.1089 10.9808 20.1089 6.71609C20.1089 3.10093 17.612 0.567343 14.3631 0.567343C12.4808 0.567343 10.9366 1.47797 10.0537 2.85406C9.18015 1.48438 7.63452 0.567343 5.74578 0.567343C2.49687 0.567343 0 3.10093 0 6.71609ZM1.76108 6.70905C1.76108 4.08436 3.49389 2.3003 5.8314 2.3003C7.65796 2.3003 8.73171 3.41452 9.39453 4.45983C9.64156 4.83046 9.81749 4.95671 10.0537 4.95671C10.2978 4.95671 10.4503 4.82405 10.7194 4.45983C11.4162 3.42733 12.4573 2.3003 14.2775 2.3003C16.615 2.3003 18.3478 4.08436 18.3478 6.70905C18.3478 10.3334 14.5859 14.2745 10.2328 17.1723C10.1525 17.2242 10.0928 17.2669 10.0537 17.2669C10.0161 17.2669 9.9564 17.2242 9.87609 17.1723C5.52296 14.2745 1.76108 10.3334 1.76108 6.70905Z" fill="#ff6900"/>
 </g>
</svg>
