<?xml version="1.0" encoding="UTF-8"?>
<!--Generator: Apple Native CoreSVG 341-->
<!DOCTYPE svg
PUBLIC "-//W3C//DTD SVG 1.1//EN"
       "http://www.w3.org/Graphics/SVG/1.1/DTD/svg11.dtd">
<svg version="1.1" xmlns="http://www.w3.org/2000/svg" xmlns:xlink="http://www.w3.org/1999/xlink" viewBox="0 0 21.8289 19.1841">
 <g>
  <rect height="19.1841" opacity="0" width="21.8289" x="0" y="0"/>
  <path d="M0 4.58031C0 12.1186 4.52281 17.0683 11.4723 17.0683C16.3281 17.0683 19.7586 13.9233 19.7586 9.49437C19.7586 5.23734 16.2983 2.15484 11.505 2.15484C9.86171 2.15484 8.19906 2.62219 6.36296 2.62219C4.7739 2.62219 3.45812 2.13203 2.37968 0.896561C1.75124 0.174533 0.582811 0.183906 0.308906 1.32781C0.0625 2.30281 0 4.03062 0 4.58031ZM1.5789 4.58031C1.5789 3.90733 1.59811 3.22811 1.68421 2.71811C1.70483 2.54639 1.80421 2.52936 1.92202 2.63311C3.08343 3.66952 4.8064 4.20108 6.36296 4.20108C7.44453 4.20108 8.44374 4.06046 9.32937 3.94186C10.1248 3.82468 10.8337 3.73374 11.505 3.73374C15.4212 3.73374 18.1797 6.1264 18.1797 9.49437C18.1797 13.0356 15.4447 15.4894 11.4723 15.4894C5.41187 15.4894 1.5789 11.248 1.5789 4.58031ZM5.87469 6.9964C6.47141 8.8064 8.28281 9.67374 10.9114 10.3109C14.2872 11.1105 15.7617 11.8208 17.1358 13.5816C18.1945 14.8989 18.4673 16.4603 19.1016 18.4745C19.2584 18.9756 19.6125 19.1841 20.0147 19.1841C20.8003 19.1841 21.4226 18.4601 21.4226 17.5736C21.4226 16.1891 19.9125 13.8623 18.7573 12.3337C17.3481 10.538 15.0289 9.53297 11.4164 8.93422C9.255 8.54844 7.65531 8.04484 6.56249 6.64343C6.23703 6.22984 5.72016 6.51359 5.87469 6.9964Z" fill="#ff6900"/>
 </g>
</svg>
