<svg width="48" height="48" viewBox="0 0 48 48" fill="none" xmlns="http://www.w3.org/2000/svg">
<path fill-rule="evenodd" clip-rule="evenodd" d="M10.08 0C14.8391 0 19.581 8.43536 19.581 15.8532C19.581 21.515 16.8184 24.9472 13.3943 26.2552V46.6789C13.3943 47.4086 12.8008 48 12.0686 48H8.09141C7.35922 48 6.7657 47.4086 6.7657 46.6789V26.2423C3.41761 24.9252 0.799988 21.4973 0.799988 15.8532C0.799988 8.43536 5.32085 0 10.08 0ZM10.1905 9.24771C9.28137 11.6959 7.34437 13.6262 4.8876 14.5321C7.34437 15.438 9.28137 17.3683 10.1905 19.8165C11.0996 17.3683 13.0366 15.438 15.4933 14.5321C13.0366 13.6262 11.0996 11.6959 10.1905 9.24771Z" fill="#FF6900"/>
<path d="M25.3257 17.6147C26.0833 19.6549 27.6974 21.2634 29.7447 22.0184C27.6974 22.7733 26.0833 24.3819 25.3257 26.422C24.5681 24.3819 22.9539 22.7733 20.9066 22.0184C22.9539 21.2634 24.5681 19.6549 25.3257 17.6147Z" fill="#FF6900"/>
<path d="M25.3257 28.1835C26.0833 30.2237 27.6974 31.8322 29.7447 32.5872C27.6974 33.3421 26.0833 34.9507 25.3257 36.9908C24.5681 34.9507 22.9539 33.3421 20.9066 32.5872C22.9539 31.8322 24.5681 30.2237 25.3257 28.1835Z" fill="#FF6900"/>
<path d="M19.5809 24.6605C20.0355 25.8846 21.004 26.8498 22.2323 27.3027C21.004 27.7557 20.0355 28.7209 19.5809 29.9449C19.1264 28.7209 18.1579 27.7557 16.9295 27.3027C18.1579 26.8498 19.1264 25.8846 19.5809 24.6605Z" fill="#FF6900"/>
<path d="M31.0705 24.6605C31.525 25.8846 32.4935 26.8498 33.7219 27.3027C32.4935 27.7557 31.525 28.7209 31.0705 29.9449C30.6159 28.7209 29.6474 27.7557 28.419 27.3027C29.6474 26.8498 30.6159 25.8846 31.0705 24.6605Z" fill="#FF6900"/>
<path d="M33.7219 17.6147C33.7219 18.1011 34.1176 18.4954 34.6057 18.4954C35.0939 18.4954 35.4896 18.1011 35.4896 17.6147V1.3211C35.4896 0.591479 36.0831 0 36.8153 0C37.5475 0 38.141 0.591479 38.141 1.3211V17.6147C38.141 18.1011 38.5367 18.4954 39.0248 18.4954C39.5129 18.4954 39.9086 18.1011 39.9086 17.6147V1.3211C39.9086 0.591479 40.5021 0 41.2343 0C41.9665 0 42.56 0.591479 42.56 1.3211V17.6147C42.56 18.1011 42.9557 18.4954 43.4438 18.4954C43.932 18.4954 44.3277 18.1011 44.3277 17.6147V1.3211C44.3277 0.591479 44.9212 0 45.6534 0C46.3856 0 46.9791 0.591479 46.9791 1.3211V18.9358C46.9791 22.2202 44.9745 25.0379 42.1181 26.2405V46.6789C42.1181 47.4086 41.5246 48 40.7924 48H37.2572C36.525 48 35.9315 47.4086 35.9315 46.6789V26.2405C33.0751 25.0379 31.0705 22.2202 31.0705 18.9358V1.3211C31.0705 0.591479 31.664 0 32.3962 0C33.1284 0 33.7219 0.591479 33.7219 1.3211V17.6147Z" fill="#FF6900"/>
</svg>
