<?xml version="1.0" encoding="UTF-8"?>
<!--Generator: Apple Native CoreSVG 341-->
<!DOCTYPE svg
PUBLIC "-//W3C//DTD SVG 1.1//EN"
       "http://www.w3.org/Graphics/SVG/1.1/DTD/svg11.dtd">
<svg version="1.1" xmlns="http://www.w3.org/2000/svg" xmlns:xlink="http://www.w3.org/1999/xlink" viewBox="0 0 30.3995 21.3506">
 <g>
  <rect height="21.3506" opacity="0" width="30.3995" x="0" y="0"/>
  <path d="M12.9606 13.1081C12.5444 13.4514 12.1716 13.8203 11.8494 14.208C10.9029 13.7113 9.78142 13.4153 8.59421 13.4153C5.2978 13.4153 2.50045 15.6991 2.50045 18.1553C2.50045 18.3986 2.61499 18.5023 2.88592 18.5023L10.122 18.5023C10.1402 19.06 10.2894 19.5729 10.5843 20.0044L2.9764 20.0044C1.61999 20.0044 0.939996 19.4225 0.939996 18.2805C0.939996 15.0094 4.28749 11.9225 8.59421 11.9225C10.2331 11.9225 11.7333 12.3706 12.9606 13.1081ZM12.3812 6.65515C12.3812 8.96452 10.6969 10.8101 8.60062 10.8101C6.51218 10.8101 4.8214 8.97374 4.8214 6.66937C4.8214 4.45374 6.52921 2.60671 8.60062 2.60671C10.6926 2.60671 12.3812 4.4239 12.3812 6.65515ZM6.32983 6.66937C6.32983 8.14468 7.36108 9.30172 8.60062 9.30172C9.84937 9.30172 10.8792 8.14468 10.8792 6.65515C10.8792 5.24655 9.85797 4.11374 8.60062 4.11374C7.3639 4.11374 6.32983 5.26718 6.32983 6.66937Z" fill="#ff6900"/>
  <path d="M20.2712 10.6817C22.675 10.6817 24.6066 8.57327 24.6066 5.95499C24.6066 3.38781 22.6694 1.33843 20.2712 1.33843C17.8795 1.33843 15.9281 3.41624 15.9281 5.96921C15.9281 8.57968 17.8661 10.6817 20.2712 10.6817ZM20.2712 9.15344C18.7711 9.15344 17.5275 7.76343 17.5275 5.96781C17.5275 4.2339 18.7689 2.86811 20.2712 2.86811C21.775 2.86811 23.0072 4.21327 23.0072 5.95499C23.0072 7.7464 21.7728 9.15344 20.2712 9.15344ZM13.8814 20.003L26.6405 20.003C28.2711 20.003 29.0533 19.4806 29.0533 18.3606C29.0533 15.6336 25.6387 11.9339 20.2584 11.9339C14.8845 11.9339 11.4686 15.6336 11.4686 18.3606C11.4686 19.4806 12.2508 20.003 13.8814 20.003ZM13.5928 18.4747C13.2578 18.4747 13.1355 18.3773 13.1355 18.1312C13.1355 16.4361 15.7136 13.47 20.2584 13.47C24.8083 13.47 27.3864 16.4361 27.3864 18.1312C27.3864 18.3773 27.2655 18.4747 26.9291 18.4747Z" fill="#ff6900"/>
 </g>
</svg>
