<?xml version="1.0" encoding="UTF-8"?>
<!--Generator: Apple Native CoreSVG 341-->
<!DOCTYPE svg
PUBLIC "-//W3C//DTD SVG 1.1//EN"
       "http://www.w3.org/Graphics/SVG/1.1/DTD/svg11.dtd">
<svg version="1.1" xmlns="http://www.w3.org/2000/svg" xmlns:xlink="http://www.w3.org/1999/xlink" viewBox="0 0 17.085 16.6916">
 <g>
  <rect height="16.6916" opacity="0" width="17.085" x="0" y="0"/>
  <path d="M9.31202 15.7036L9.31202 0.976554C9.31202 0.444371 8.87405 0 8.33546 0C7.80469 0 7.36672 0.444371 7.36672 0.976554L7.36672 15.7036C7.36672 16.2344 7.80469 16.6787 8.33546 16.6787C8.87405 16.6787 9.31202 16.2344 9.31202 15.7036ZM0.975148 9.31202L15.7036 9.31202C16.2344 9.31202 16.6787 8.87546 16.6787 8.34328C16.6787 7.80469 16.2344 7.36813 15.7036 7.36813L0.975148 7.36813C0.444371 7.36813 0 7.80469 0 8.34328C0 8.87546 0.444371 9.31202 0.975148 9.31202Z" fill="white"/>
 </g>
</svg>
