<?xml version="1.0" encoding="UTF-8"?>
<!--Generator: Apple Native CoreSVG 341-->
<!DOCTYPE svg
PUBLIC "-//W3C//DTD SVG 1.1//EN"
       "http://www.w3.org/Graphics/SVG/1.1/DTD/svg11.dtd">
<svg version="1.1" xmlns="http://www.w3.org/2000/svg" xmlns:xlink="http://www.w3.org/1999/xlink" viewBox="0 0 19.1756 24.8497">
 <g>
  <rect height="24.8497" opacity="0" width="19.1756" x="0" y="0"/>
  <path d="M8.76 4.91C8.89484 4.91 8.96859 4.82203 8.99203 4.6964C9.26265 3.09484 9.24062 2.98734 11.0092 2.68062C11.1377 2.66219 11.2164 2.58344 11.2164 2.455C11.2164 2.32656 11.1362 2.24 11.0078 2.22297C9.24062 1.93172 9.26125 1.8214 8.99203 0.208593C8.96859 0.081562 8.89484 0 8.76 0C8.62515 0 8.5514 0.081562 8.52797 0.209999C8.26156 1.80875 8.28078 1.91766 6.51078 2.22297C6.38234 2.24281 6.30359 2.32656 6.30359 2.455C6.30359 2.58344 6.38234 2.66219 6.515 2.68062C8.27797 2.9789 8.25875 3.08781 8.52797 4.695C8.5514 4.82203 8.62515 4.91 8.76 4.91Z" fill="white"/>
  <path d="M3.84734 11.8898C4.02468 11.8898 4.16015 11.7636 4.185 11.5862C4.55296 8.90281 4.61265 8.91359 7.3925 8.38937C7.56343 8.35531 7.69328 8.23546 7.69328 8.05172C7.69328 7.86656 7.56062 7.7375 7.39109 7.71265C4.61828 7.30203 4.54656 7.24312 4.185 4.525C4.16015 4.33844 4.02609 4.21359 3.84734 4.21359C3.66719 4.21359 3.53312 4.33844 3.50828 4.53281C3.16515 7.20844 3.0664 7.18844 0.30078 7.71265C0.131249 7.74672 0 7.86656 0 8.05172C0 8.24328 0.131249 8.35531 0.337655 8.38937C3.07641 8.83906 3.16515 8.88937 3.50828 11.5692C3.53312 11.7636 3.66719 11.8898 3.84734 11.8898Z" fill="white"/>
  <path d="M10.7916 23.1C11.0759 23.1 11.2922 22.9036 11.3319 22.6086C12.032 17.0133 12.7678 16.2576 18.2595 15.6717C18.5623 15.6412 18.7694 15.4222 18.7694 15.135C18.7694 14.8492 18.5637 14.6266 18.2609 14.5933C12.7706 13.9891 12.0517 13.2503 11.3319 7.655C11.2894 7.36781 11.0745 7.16359 10.7916 7.16359C10.5072 7.16359 10.2973 7.36781 10.2512 7.655C9.55109 13.2503 8.81531 14.0073 3.32359 14.5933C3.02078 14.6223 2.81375 14.8478 2.81375 15.135C2.81375 15.4208 3.01937 15.6384 3.32218 15.6717C8.79828 16.3891 9.49156 17.0197 10.2512 22.6086C10.2987 22.9036 10.5086 23.1 10.7916 23.1Z" fill="white"/>
 </g>
</svg>
