<?xml version="1.0" encoding="UTF-8"?>
<!--Generator: Apple Native CoreSVG 341-->
<!DOCTYPE svg
PUBLIC "-//W3C//DTD SVG 1.1//EN"
       "http://www.w3.org/Graphics/SVG/1.1/DTD/svg11.dtd">
<svg version="1.1" xmlns="http://www.w3.org/2000/svg" xmlns:xlink="http://www.w3.org/1999/xlink" viewBox="0 0 21.0151 24.95">
 <g>
  <rect height="24.95" opacity="0" width="21.0151" x="0" y="0"/>
  <path d="M10.3012 22.7737C15.9461 22.7737 20.6089 18.1109 20.6089 12.4725C20.6089 6.82765 15.9397 2.16484 10.2934 2.16484C4.655 2.16484 0 6.82765 0 12.4725C0 18.1109 4.66281 22.7737 10.3012 22.7737ZM10.3012 20.993C5.5828 20.993 1.78717 17.1909 1.78717 12.4725C1.78717 7.74764 5.57499 3.95202 10.2934 3.95202C15.0183 3.95202 18.8153 7.74764 18.8217 12.4725C18.8295 17.1909 15.0261 20.993 10.3012 20.993ZM9.26031 2.83453L11.3372 2.83453L11.3372 1.05875C11.3372 0.472655 10.8781 0 10.2962 0C9.73 0 9.26031 0.472655 9.26031 1.05875ZM16.7481 5.03547L18.1681 6.5339L19.3717 5.3203C19.6001 5.09327 19.7258 4.81218 19.7258 4.54046C19.7258 3.99343 19.288 3.55281 18.7203 3.55281C18.3975 3.55281 18.1591 3.64859 17.9256 3.8714Z" fill="#ff6900"/>
  <path d="M10.3012 14.0942C11.1926 14.0942 11.9023 13.3703 11.9023 12.4789C11.9023 11.8634 11.563 11.3339 11.0026 11.0486L11.0026 6.08076C11.0026 5.68858 10.6934 5.38577 10.2934 5.38577C9.90765 5.38577 9.59203 5.68858 9.59203 6.08076L9.59203 11.0422C9.04453 11.3353 8.69234 11.8634 8.69234 12.4789C8.69234 13.3703 9.40343 14.0942 10.3012 14.0942Z" fill="#ff6900"/>
 </g>
</svg>
