<?xml version="1.0" encoding="UTF-8"?>
<!--Generator: Apple Native CoreSVG 341-->
<!DOCTYPE svg
PUBLIC "-//W3C//DTD SVG 1.1//EN"
       "http://www.w3.org/Graphics/SVG/1.1/DTD/svg11.dtd">
<svg version="1.1" xmlns="http://www.w3.org/2000/svg" xmlns:xlink="http://www.w3.org/1999/xlink" viewBox="0 0 21.2964 21.6753">
 <g>
  <rect height="21.6753" opacity="0" width="21.2964" x="0" y="0"/>
  <path d="M14.4231 7.83842C14.577 7.83842 14.6954 7.7292 14.7267 7.57811C15.1734 5.07921 15.5292 4.5878 18.0636 4.22421C18.2267 4.19937 18.3295 4.07952 18.3295 3.92421C18.3295 3.7589 18.2267 3.64046 18.0636 3.61702C15.5489 3.25203 15.1192 2.73421 14.7267 0.285155C14.6912 0.107812 14.577 0 14.4231 0C14.2578 0 14.1394 0.107812 14.1145 0.277342C13.667 2.75421 13.2908 3.24921 10.7762 3.61702C10.6017 3.64046 10.4989 3.7589 10.4989 3.92421C10.4989 4.07952 10.6017 4.19015 10.7762 4.22421C13.2739 4.6089 13.7064 5.06437 14.1145 7.5717C14.1344 7.7292 14.245 7.83842 14.4231 7.83842ZM2.80344 15.9742C2.95812 15.9742 3.0489 15.8756 3.07234 15.7301C3.34437 13.8831 3.35 13.7287 5.36703 13.4383C5.5189 13.4134 5.61609 13.3134 5.61609 13.1694C5.61609 13.0239 5.52031 12.9267 5.36703 12.9019C3.34718 12.5895 3.34718 12.4444 3.07234 10.6072C3.0489 10.4631 2.95531 10.3581 2.80344 10.3581C2.65797 10.3581 2.56078 10.4631 2.53453 10.61C2.26391 12.4486 2.25969 12.598 0.246874 12.9019C0.0943747 12.9267 0 13.0225 0 13.1694C0 13.3134 0.0943747 13.412 0.239843 13.4383C2.2625 13.7414 2.26531 13.893 2.53453 15.7301C2.56078 15.8756 2.65797 15.9742 2.80344 15.9742ZM6.21078 18.9384C6.31937 18.9384 6.40171 18.8561 6.41875 18.7475C6.60546 17.6389 6.57562 17.557 7.86062 17.3134C7.97703 17.2886 8.04375 17.2076 8.04375 17.1005C8.04375 16.9919 7.97843 16.9145 7.86343 16.8911C6.58343 16.6475 6.61968 16.5734 6.41875 15.4492C6.40171 15.3406 6.31156 15.2647 6.21078 15.2647C6.10218 15.2647 6.02625 15.3406 6.0014 15.4634C5.78406 16.5734 5.84093 16.6681 4.56875 16.8911C4.44953 16.9173 4.375 16.9855 4.375 17.1005C4.375 17.2076 4.44953 17.2886 4.55812 17.3134C5.84093 17.557 5.78406 17.6389 6.0014 18.7447C6.02625 18.8561 6.10218 18.9384 6.21078 18.9384Z" fill="#ff6900"/>
  <path d="M19.3791 19.7114C19.8287 19.2511 19.8351 18.5362 19.3776 18.0695L6.17312 4.85453C5.71703 4.38922 4.95813 4.39563 4.51844 4.85453C4.06876 5.31984 4.06876 6.03468 4.52626 6.5014L17.7244 19.7114C18.1869 20.1881 18.9394 20.1753 19.3791 19.7114ZM18.7776 19.1086C18.6344 19.2533 18.4003 19.2597 18.2542 19.1086L8.77593 9.63108L9.30156 9.10124L18.7776 18.5866C18.9287 18.7376 18.9301 18.9639 18.7776 19.1086Z" fill="#ff6900"/>
 </g>
</svg>
