<?xml version="1.0" encoding="UTF-8"?>
<!--Generator: Apple Native CoreSVG 341-->
<!DOCTYPE svg
PUBLIC "-//W3C//DTD SVG 1.1//EN"
       "http://www.w3.org/Graphics/SVG/1.1/DTD/svg11.dtd">
<svg version="1.1" xmlns="http://www.w3.org/2000/svg" xmlns:xlink="http://www.w3.org/1999/xlink" viewBox="0 0 16.2129 15.8223">
 <g>
  <rect height="15.8223" opacity="0" width="16.2129" x="0" y="0"/>
  <path d="M14.501 0.243174L0.219736 14.5244C-0.0693262 14.8135-0.0771387 15.3057 0.219736 15.6025C0.524424 15.8916 1.0088 15.8916 1.30567 15.6025L15.5791 1.3213C15.876 1.03224 15.8838 0.540049 15.5791 0.243174C15.2822-0.0458887 14.7979-0.0537012 14.501 0.243174ZM15.5791 14.5244L1.30567 0.243174C1.0088-0.0458887 0.516611-0.0537012 0.219736 0.243174C-0.0693262 0.547861-0.0693262 1.03224 0.219736 1.3213L14.501 15.6025C14.79 15.8916 15.29 15.8994 15.5791 15.6025C15.876 15.2979 15.876 14.8135 15.5791 14.5244Z" fill="#f54900"/>
 </g>
</svg>
